<svg id="visual" viewBox="0 0 900 600" width="900" height="600" xmlns="http://www.w3.org/2000/svg" xmlns:xlink="http://www.w3.org/1999/xlink" version="1.1"><g stroke-width="1" stroke-linejoin="bevel"><path d="M408 311L423 391L531 303Z" fill="#f0ecfa" stroke="#f0ecfa"></path><path d="M423 391L479 432L531 303Z" fill="#6f5ccb" stroke="#6f5ccb"></path><path d="M479 432L568 337L531 303Z" fill="#ffffff" stroke="#ffffff"></path><path d="M479 432L581 410L568 337Z" fill="#937ed7" stroke="#937ed7"></path><path d="M576 238L533 217L531 303Z" fill="#c3b3e9" stroke="#c3b3e9"></path><path d="M531 303L533 217L408 311Z" fill="#c3b3e9" stroke="#c3b3e9"></path><path d="M732 283L576 238L568 337Z" fill="#e1d9f4" stroke="#e1d9f4"></path><path d="M568 337L576 238L531 303Z" fill="#a38fdd" stroke="#a38fdd"></path><path d="M408 311L324 425L423 391Z" fill="#a38fdd" stroke="#a38fdd"></path><path d="M423 391L396 499L479 432Z" fill="#e1d9f4" stroke="#e1d9f4"></path><path d="M324 425L396 499L423 391Z" fill="#b3a1e3" stroke="#b3a1e3"></path><path d="M479 432L484 524L581 410Z" fill="#ffffff" stroke="#ffffff"></path><path d="M396 499L484 524L479 432Z" fill="#a38fdd" stroke="#a38fdd"></path><path d="M324 425L329 470L396 499Z" fill="#f0ecfa" stroke="#f0ecfa"></path><path d="M533 217L362 176L408 311Z" fill="#e1d9f4" stroke="#e1d9f4"></path><path d="M408 311L283 271L324 425Z" fill="#5b4bc5" stroke="#5b4bc5"></path><path d="M362 176L283 271L408 311Z" fill="#f0ecfa" stroke="#f0ecfa"></path><path d="M324 425L225 460L329 470Z" fill="#c3b3e9" stroke="#c3b3e9"></path><path d="M661 462L667 439L581 410Z" fill="#816cd1" stroke="#816cd1"></path><path d="M581 410L667 439L568 337Z" fill="#5b4bc5" stroke="#5b4bc5"></path><path d="M484 524L628 494L581 410Z" fill="#a38fdd" stroke="#a38fdd"></path><path d="M628 494L661 462L581 410Z" fill="#ffffff" stroke="#ffffff"></path><path d="M624 128L538 99L533 217Z" fill="#e1d9f4" stroke="#e1d9f4"></path><path d="M533 217L406 85L362 176Z" fill="#816cd1" stroke="#816cd1"></path><path d="M624 128L533 217L576 238Z" fill="#a38fdd" stroke="#a38fdd"></path><path d="M362 176L269 185L283 271Z" fill="#a38fdd" stroke="#a38fdd"></path><path d="M307 70L269 185L362 176Z" fill="#5b4bc5" stroke="#5b4bc5"></path><path d="M407 600L488 600L484 524Z" fill="#a38fdd" stroke="#a38fdd"></path><path d="M484 524L600 600L628 494Z" fill="#c3b3e9" stroke="#c3b3e9"></path><path d="M407 600L484 524L396 499Z" fill="#a38fdd" stroke="#a38fdd"></path><path d="M718 235L624 128L576 238Z" fill="#a38fdd" stroke="#a38fdd"></path><path d="M538 99L406 85L533 217Z" fill="#b3a1e3" stroke="#b3a1e3"></path><path d="M779 404L732 283L667 439Z" fill="#ffffff" stroke="#ffffff"></path><path d="M667 439L732 283L568 337Z" fill="#b3a1e3" stroke="#b3a1e3"></path><path d="M218 164L205 325L283 271Z" fill="#a38fdd" stroke="#a38fdd"></path><path d="M283 271L205 325L324 425Z" fill="#ffffff" stroke="#ffffff"></path><path d="M315 600L396 499L329 470Z" fill="#e1d9f4" stroke="#e1d9f4"></path><path d="M315 600L407 600L396 499Z" fill="#d2c6ef" stroke="#d2c6ef"></path><path d="M732 283L718 235L576 238Z" fill="#d2c6ef" stroke="#d2c6ef"></path><path d="M205 325L225 460L324 425Z" fill="#c3b3e9" stroke="#c3b3e9"></path><path d="M488 600L600 600L484 524Z" fill="#ffffff" stroke="#ffffff"></path><path d="M628 494L684 600L661 462Z" fill="#a38fdd" stroke="#a38fdd"></path><path d="M225 460L315 600L329 470Z" fill="#937ed7" stroke="#937ed7"></path><path d="M269 185L218 164L283 271Z" fill="#816cd1" stroke="#816cd1"></path><path d="M307 70L218 164L269 185Z" fill="#f0ecfa" stroke="#f0ecfa"></path><path d="M205 325L178 437L225 460Z" fill="#c3b3e9" stroke="#c3b3e9"></path><path d="M225 460L186 600L315 600Z" fill="#f0ecfa" stroke="#f0ecfa"></path><path d="M91 317L178 437L205 325Z" fill="#6f5ccb" stroke="#6f5ccb"></path><path d="M799 484L779 404L667 439Z" fill="#f0ecfa" stroke="#f0ecfa"></path><path d="M732 283L800 285L718 235Z" fill="#a38fdd" stroke="#a38fdd"></path><path d="M799 484L667 439L661 462Z" fill="#b3a1e3" stroke="#b3a1e3"></path><path d="M365 0L307 70L406 85Z" fill="#937ed7" stroke="#937ed7"></path><path d="M406 85L307 70L362 176Z" fill="#a38fdd" stroke="#a38fdd"></path><path d="M766 182L681 96L718 235Z" fill="#937ed7" stroke="#937ed7"></path><path d="M718 235L681 96L624 128Z" fill="#c3b3e9" stroke="#c3b3e9"></path><path d="M638 0L524 0L538 99Z" fill="#6f5ccb" stroke="#6f5ccb"></path><path d="M538 99L524 0L406 85Z" fill="#f0ecfa" stroke="#f0ecfa"></path><path d="M779 404L800 285L732 283Z" fill="#d2c6ef" stroke="#d2c6ef"></path><path d="M800 285L766 182L718 235Z" fill="#6f5ccb" stroke="#6f5ccb"></path><path d="M600 600L684 600L628 494Z" fill="#937ed7" stroke="#937ed7"></path><path d="M638 0L538 99L624 128Z" fill="#816cd1" stroke="#816cd1"></path><path d="M307 70L194 128L218 164Z" fill="#b3a1e3" stroke="#b3a1e3"></path><path d="M94 224L91 317L205 325Z" fill="#5b4bc5" stroke="#5b4bc5"></path><path d="M524 0L365 0L406 85Z" fill="#ffffff" stroke="#ffffff"></path><path d="M307 70L181 0L194 128Z" fill="#b3a1e3" stroke="#b3a1e3"></path><path d="M684 600L799 484L661 462Z" fill="#ffffff" stroke="#ffffff"></path><path d="M779 404L900 313L800 285Z" fill="#937ed7" stroke="#937ed7"></path><path d="M365 0L330 0L307 70Z" fill="#e1d9f4" stroke="#e1d9f4"></path><path d="M681 96L638 0L624 128Z" fill="#d2c6ef" stroke="#d2c6ef"></path><path d="M734 0L638 0L681 96Z" fill="#816cd1" stroke="#816cd1"></path><path d="M94 224L205 325L218 164Z" fill="#937ed7" stroke="#937ed7"></path><path d="M94 538L186 600L225 460Z" fill="#6f5ccb" stroke="#6f5ccb"></path><path d="M94 538L225 460L178 437Z" fill="#ffffff" stroke="#ffffff"></path><path d="M684 600L765 600L799 484Z" fill="#b3a1e3" stroke="#b3a1e3"></path><path d="M194 128L94 224L218 164Z" fill="#f0ecfa" stroke="#f0ecfa"></path><path d="M0 290L61 382L91 317Z" fill="#b3a1e3" stroke="#b3a1e3"></path><path d="M91 317L61 382L178 437Z" fill="#d2c6ef" stroke="#d2c6ef"></path><path d="M900 118L804 86L766 182Z" fill="#5b4bc5" stroke="#5b4bc5"></path><path d="M766 182L804 86L681 96Z" fill="#b3a1e3" stroke="#b3a1e3"></path><path d="M900 208L766 182L800 285Z" fill="#d2c6ef" stroke="#d2c6ef"></path><path d="M61 382L94 538L178 437Z" fill="#c3b3e9" stroke="#c3b3e9"></path><path d="M900 422L779 404L799 484Z" fill="#937ed7" stroke="#937ed7"></path><path d="M900 422L900 313L779 404Z" fill="#937ed7" stroke="#937ed7"></path><path d="M804 86L734 0L681 96Z" fill="#d2c6ef" stroke="#d2c6ef"></path><path d="M900 505L900 422L799 484Z" fill="#f0ecfa" stroke="#f0ecfa"></path><path d="M94 538L109 600L186 600Z" fill="#6f5ccb" stroke="#6f5ccb"></path><path d="M330 0L181 0L307 70Z" fill="#6f5ccb" stroke="#6f5ccb"></path><path d="M194 128L63 60L94 224Z" fill="#5b4bc5" stroke="#5b4bc5"></path><path d="M900 313L900 208L800 285Z" fill="#d2c6ef" stroke="#d2c6ef"></path><path d="M900 0L767 0L804 86Z" fill="#d2c6ef" stroke="#d2c6ef"></path><path d="M804 86L767 0L734 0Z" fill="#f0ecfa" stroke="#f0ecfa"></path><path d="M900 600L900 505L799 484Z" fill="#6f5ccb" stroke="#6f5ccb"></path><path d="M0 186L0 290L94 224Z" fill="#ffffff" stroke="#ffffff"></path><path d="M94 224L0 290L91 317Z" fill="#f0ecfa" stroke="#f0ecfa"></path><path d="M61 382L0 482L94 538Z" fill="#c3b3e9" stroke="#c3b3e9"></path><path d="M94 538L0 600L109 600Z" fill="#ffffff" stroke="#ffffff"></path><path d="M0 290L0 404L61 382Z" fill="#816cd1" stroke="#816cd1"></path><path d="M900 208L900 118L766 182Z" fill="#ffffff" stroke="#ffffff"></path><path d="M181 0L124 0L194 128Z" fill="#a38fdd" stroke="#a38fdd"></path><path d="M0 404L0 482L61 382Z" fill="#f0ecfa" stroke="#f0ecfa"></path><path d="M124 0L63 60L194 128Z" fill="#e1d9f4" stroke="#e1d9f4"></path><path d="M0 130L0 186L94 224Z" fill="#b3a1e3" stroke="#b3a1e3"></path><path d="M765 600L900 600L799 484Z" fill="#5b4bc5" stroke="#5b4bc5"></path><path d="M63 60L0 130L94 224Z" fill="#ffffff" stroke="#ffffff"></path><path d="M0 482L0 600L94 538Z" fill="#b3a1e3" stroke="#b3a1e3"></path><path d="M900 118L900 0L804 86Z" fill="#c3b3e9" stroke="#c3b3e9"></path><path d="M124 0L0 0L63 60Z" fill="#f0ecfa" stroke="#f0ecfa"></path><path d="M63 60L0 0L0 130Z" fill="#ffffff" stroke="#ffffff"></path></g></svg>